<svg data-v-fde0c5aa="" xmlns="http://www.w3.org/2000/svg" viewBox="0 0 300 300" class="iconAbove"><!----><defs data-v-fde0c5aa=""><!----></defs><rect data-v-fde0c5aa="" fill="transparent" x="0" y="0" width="300px" height="300px" class="logo-background-square"></rect><defs data-v-fde0c5aa=""><!----></defs><g data-v-fde0c5aa="" id="cf06052b-9ebd-4d6d-b246-bcae485ed827" fill="#000000" transform="matrix(3.5201732717500236,0,0,3.5201732717500236,15.458976613726424,171.93663828437582)"><path d="M12.04 11.90L12.26 12.10L12.26 12.10Q12.16 12.30 12.01 12.48L12.01 12.48L12.01 12.48Q11.85 12.67 11.66 12.81L11.66 12.81L11.66 12.81Q11.46 12.95 11.25 13.03L11.25 13.03L11.25 13.03Q11.03 13.12 10.79 13.12L10.79 13.12L10.79 13.12Q10.42 13.12 10.13 12.97L10.13 12.97L10.13 12.97Q9.84 12.83 9.65 12.59L9.65 12.59L9.65 12.59Q9.46 12.35 9.37 12.03L9.37 12.03L9.37 12.03Q9.27 11.72 9.27 11.37L9.27 11.37L9.27 4.57L9.27 4.57Q9.27 4.46 9.25 4.36L9.25 4.36L9.25 4.36Q9.22 4.25 9.17 4.17L9.17 4.17L9.17 4.17Q9.11 4.08 9.03 4.03L9.03 4.03L9.03 4.03Q8.94 3.98 8.82 3.98L8.82 3.98L8.82 3.98Q8.61 3.98 8.38 4.15L8.38 4.15L8.38 4.15Q8.14 4.31 7.91 4.62L7.91 4.62L7.91 4.62Q7.67 4.94 7.45 5.37L7.45 5.37L7.45 5.37Q7.23 5.81 7.06 6.34L7.06 6.34L7.06 6.34Q6.90 6.88 6.79 7.50L6.79 7.50L6.79 7.50Q6.69 8.11 6.69 8.79L6.69 8.79L6.69 12.74L5.28 13.25L5.28 4.57L5.28 4.57Q5.28 4.46 5.25 4.36L5.25 4.36L5.25 4.36Q5.23 4.25 5.17 4.17L5.17 4.17L5.17 4.17Q5.12 4.08 5.04 4.03L5.04 4.03L5.04 4.03Q4.96 3.98 4.83 3.98L4.83 3.98L4.83 3.98Q4.63 3.98 4.39 4.23L4.39 4.23L4.39 4.23Q4.16 4.48 3.92 4.89L3.92 4.89L3.92 4.89Q3.68 5.30 3.46 5.84L3.46 5.84L3.46 5.84Q3.24 6.38 3.07 6.96L3.07 6.96L3.07 6.96Q2.91 7.54 2.80 8.11L2.80 8.11L2.80 8.11Q2.70 8.69 2.70 9.17L2.70 9.17L2.70 12.74L1.29 13.25L1.29 3.46L2.70 2.95L2.70 6.81L2.70 6.81Q2.97 5.66 3.31 4.92L3.31 4.92L3.31 4.92Q3.64 4.18 4.01 3.75L4.01 3.75L4.01 3.75Q4.38 3.32 4.76 3.15L4.76 3.15L4.76 3.15Q5.14 2.99 5.50 2.99L5.50 2.99L5.50 2.99Q5.91 2.99 6.15 3.09L6.15 3.09L6.15 3.09Q6.39 3.19 6.51 3.36L6.51 3.36L6.51 3.36Q6.64 3.53 6.67 3.77L6.67 3.77L6.67 3.77Q6.70 4.01 6.69 4.29L6.69 4.29L6.69 6.32L6.69 6.32Q6.90 5.47 7.23 4.84L7.23 4.84L7.23 4.84Q7.55 4.22 7.94 3.80L7.94 3.80L7.94 3.80Q8.32 3.39 8.73 3.19L8.73 3.19L8.73 3.19Q9.13 2.99 9.50 2.99L9.50 2.99L9.50 2.99Q10.07 2.99 10.38 3.23L10.38 3.23L10.38 3.23Q10.68 3.47 10.68 4.05L10.68 4.05L10.68 11.59L10.68 11.59Q10.68 11.73 10.71 11.87L10.71 11.87L10.71 11.87Q10.74 12.00 10.80 12.11L10.80 12.11L10.80 12.11Q10.87 12.22 10.98 12.28L10.98 12.28L10.98 12.28Q11.09 12.35 11.25 12.35L11.25 12.35L11.25 12.35Q11.48 12.35 11.69 12.22L11.69 12.22L11.69 12.22Q11.90 12.08 12.04 11.90L12.04 11.90ZM17.38 11.48L17.58 11.70L17.58 11.70Q17.34 12.01 17.06 12.28L17.06 12.28L17.06 12.28Q16.78 12.54 16.44 12.74L16.44 12.74L16.44 12.74Q16.11 12.94 15.74 13.06L15.74 13.06L15.74 13.06Q15.37 13.17 14.98 13.17L14.98 13.17L14.98 13.17Q14.47 13.17 14.05 12.99L14.05 12.99L14.05 12.99Q13.62 12.81 13.32 12.49L13.32 12.49L13.32 12.49Q13.01 12.17 12.84 11.74L12.84 11.74L12.84 11.74Q12.67 11.31 12.67 10.81L12.67 10.81L12.67 10.81Q12.67 10.40 12.78 10.00L12.78 10.00L12.78 10.00Q12.90 9.60 13.11 9.26L13.11 9.26L13.11 9.26Q13.32 8.91 13.61 8.61L13.61 8.61L13.61 8.61Q13.90 8.31 14.25 8.10L14.25 8.10L14.25 8.10Q14.60 7.89 14.99 7.77L14.99 7.77L14.99 7.77Q15.38 7.65 15.79 7.65L15.79 7.65L15.79 7.65Q16.08 7.65 16.33 7.72L16.33 7.72L16.33 7.72Q16.59 7.79 16.79 7.93L16.79 7.93L16.79 7.93Q16.99 8.08 17.10 8.31L17.10 8.31L17.10 8.31Q17.22 8.54 17.22 8.85L17.22 8.85L17.22 8.85Q17.22 9.11 17.07 9.40L17.07 9.40L17.07 9.40Q16.91 9.69 16.66 9.97L16.66 9.97L16.66 9.97Q16.41 10.26 16.10 10.54L16.10 10.54L16.10 10.54Q15.78 10.81 15.46 11.05L15.46 11.05L15.46 11.05Q15.13 11.29 14.83 11.46L14.83 11.46L14.83 11.46Q14.53 11.64 14.31 11.74L14.31 11.74L14.31 11.74Q14.56 12.05 14.90 12.25L14.90 12.25L14.90 12.25Q15.23 12.45 15.61 12.45L15.61 12.45L15.61 12.45Q15.85 12.45 16.09 12.36L16.09 12.36L16.09 12.36Q16.34 12.26 16.57 12.12L16.57 12.12L16.57 12.12Q16.80 11.98 17.00 11.81L17.00 11.81L17.00 11.81Q17.21 11.63 17.38 11.48L17.38 11.48ZM15.93 9.11L15.93 9.11L15.93 9.11Q15.93 8.95 15.88 8.80L15.88 8.80L15.88 8.80Q15.83 8.66 15.74 8.56L15.74 8.56L15.74 8.56Q15.64 8.45 15.51 8.38L15.51 8.38L15.51 8.38Q15.37 8.32 15.20 8.32L15.20 8.32L15.20 8.32Q14.90 8.32 14.64 8.53L14.64 8.53L14.64 8.53Q14.38 8.75 14.19 9.06L14.19 9.06L14.19 9.06Q14 9.38 13.89 9.73L13.89 9.73L13.89 9.73Q13.79 10.08 13.79 10.35L13.79 10.35L13.79 10.35Q13.79 10.61 13.87 10.88L13.87 10.88L13.87 10.88Q13.95 11.16 14.10 11.41L14.10 11.41L14.10 11.41Q14.37 11.26 14.69 10.99L14.69 10.99L14.69 10.99Q15.01 10.73 15.29 10.41L15.29 10.41L15.29 10.41Q15.57 10.09 15.75 9.75L15.75 9.75L15.75 9.75Q15.93 9.41 15.93 9.11ZM22.11 12.11L22.27 12.29L22.27 12.29Q22.15 12.48 21.97 12.64L21.97 12.64L21.97 12.64Q21.79 12.79 21.58 12.90L21.58 12.90L21.58 12.90Q21.37 13.01 21.14 13.07L21.14 13.07L21.14 13.07Q20.90 13.13 20.68 13.13L20.68 13.13L20.68 13.13Q20.38 13.13 20.16 13.02L20.16 13.02L20.16 13.02Q19.95 12.91 19.81 12.72L19.81 12.72L19.81 12.72Q19.67 12.54 19.61 12.29L19.61 12.29L19.61 12.29Q19.54 12.04 19.54 11.78L19.54 11.78L19.54 11.78Q19.54 11.43 19.65 11.03L19.65 11.03L19.65 11.03Q19.76 10.63 19.94 10.24L19.94 10.24L19.94 10.24Q20.12 9.85 20.35 9.52L20.35 9.52L20.35 9.52Q20.58 9.18 20.84 8.96L20.84 8.96L20.84 8.96Q20.60 9.12 20.32 9.21L20.32 9.21L20.32 9.21Q20.04 9.30 19.74 9.30L19.74 9.30L19.74 9.30Q19.53 9.30 19.37 9.26L19.37 9.26L19.37 9.26Q19.22 9.23 19.02 9.13L19.02 9.13L18.31 10.62L18.02 10.50L18.76 8.99L18.76 8.99Q18.64 8.91 18.51 8.78L18.51 8.78L18.51 8.78Q18.38 8.65 18.31 8.53L18.31 8.53L19.26 7.46L19.26 7.46Q19.33 7.65 19.43 7.84L19.43 7.84L19.43 7.84Q19.54 8.03 19.69 8.17L19.69 8.17L19.69 8.17Q19.84 8.32 20.02 8.42L20.02 8.42L20.02 8.42Q20.20 8.51 20.41 8.51L20.41 8.51L20.41 8.51Q20.77 8.51 21.12 8.38L21.12 8.38L21.12 8.38Q21.46 8.24 21.75 8.05L21.75 8.05L21.94 8.24L21.94 8.24Q21.68 8.48 21.41 8.77L21.41 8.77L21.41 8.77Q21.15 9.06 20.94 9.39L20.94 9.39L20.94 9.39Q20.73 9.71 20.60 10.08L20.60 10.08L20.60 10.08Q20.47 10.44 20.47 10.81L20.47 10.81L20.47 10.81Q20.47 11.02 20.52 11.28L20.52 11.28L20.52 11.28Q20.58 11.55 20.71 11.78L20.71 11.78L20.71 11.78Q20.83 12.02 21.01 12.18L21.01 12.18L21.01 12.18Q21.20 12.34 21.46 12.34L21.46 12.34L21.46 12.34Q21.64 12.34 21.80 12.27L21.80 12.27L21.80 12.27Q21.97 12.21 22.11 12.11L22.11 12.11ZM25.33 13.19L25.33 13.19L25.33 13.19Q24.82 13.19 24.38 13.01L24.38 13.01L24.38 13.01Q23.94 12.83 23.61 12.51L23.61 12.51L23.61 12.51Q23.29 12.19 23.10 11.75L23.10 11.75L23.10 11.75Q22.91 11.32 22.91 10.81L22.91 10.81L22.91 10.81Q22.91 10.23 23.11 9.72L23.11 9.72L23.11 9.72Q23.30 9.21 23.64 8.80L23.64 8.80L23.64 8.80Q23.97 8.39 24.44 8.09L24.44 8.09L24.44 8.09Q24.90 7.79 25.44 7.62L25.44 7.62L25.63 7.85L25.63 7.85Q25.33 8.08 25.06 8.37L25.06 8.37L25.06 8.37Q24.79 8.66 24.60 9.00L24.60 9.00L24.60 9.00Q24.40 9.34 24.28 9.71L24.28 9.71L24.28 9.71Q24.17 10.08 24.17 10.47L24.17 10.47L24.17 10.47Q24.17 10.80 24.26 11.16L24.26 11.16L24.26 11.16Q24.36 11.53 24.55 11.83L24.55 11.83L24.55 11.83Q24.74 12.13 25.03 12.32L25.03 12.32L25.03 12.32Q25.32 12.52 25.70 12.52L25.70 12.52L25.70 12.52Q26.04 12.52 26.29 12.39L26.29 12.39L26.29 12.39Q26.54 12.27 26.71 12.06L26.71 12.06L26.71 12.06Q26.87 11.85 26.95 11.56L26.95 11.56L26.95 11.56Q27.04 11.28 27.04 10.96L27.04 10.96L27.04 10.96Q27.04 10.60 26.89 10.21L26.89 10.21L26.89 10.21Q26.75 9.82 26.50 9.50L26.50 9.50L26.50 9.50Q26.25 9.17 25.92 8.95L25.92 8.95L25.92 8.95Q25.58 8.73 25.20 8.70L25.20 8.70L25.20 8.70Q25.44 8.42 25.72 8.19L25.72 8.19L25.72 8.19Q26.01 7.96 26.30 7.75L26.30 7.75L26.30 7.75Q26.70 7.88 27.01 8.13L27.01 8.13L27.01 8.13Q27.31 8.38 27.52 8.71L27.52 8.71L27.52 8.71Q27.73 9.04 27.84 9.42L27.84 9.42L27.84 9.42Q27.95 9.81 27.95 10.21L27.95 10.21L27.95 10.21Q27.95 10.75 27.76 11.28L27.76 11.28L27.76 11.28Q27.57 11.81 27.22 12.24L27.22 12.24L27.22 12.24Q26.88 12.67 26.40 12.93L26.40 12.93L26.40 12.93Q25.92 13.19 25.33 13.19ZM30.81 2.95L30.81 12.74L29.39 13.25L29.39 3.46L30.81 2.95ZM38.04 12.03L38.23 12.24L38.23 12.24Q38.15 12.41 38.02 12.57L38.02 12.57L38.02 12.57Q37.89 12.73 37.73 12.85L37.73 12.85L37.73 12.85Q37.57 12.97 37.39 13.05L37.39 13.05L37.39 13.05Q37.20 13.12 37.00 13.12L37.00 13.12L37.00 13.12Q36.46 13.12 36.22 12.82L36.22 12.82L36.22 12.82Q35.98 12.52 35.98 12.01L35.98 12.01L35.98 9.23L35.98 9.23Q35.98 9.18 35.97 9.12L35.97 9.12L35.97 9.12Q35.97 9.05 35.95 8.99L35.95 8.99L35.95 8.99Q35.93 8.93 35.90 8.89L35.90 8.89L35.90 8.89Q35.86 8.85 35.80 8.85L35.80 8.85L35.80 8.85Q35.61 8.85 35.41 9.08L35.41 9.08L35.41 9.08Q35.22 9.32 35.04 9.69L35.04 9.69L35.04 9.69Q34.86 10.06 34.70 10.51L34.70 10.51L34.70 10.51Q34.55 10.97 34.43 11.42L34.43 11.42L34.43 11.42Q34.32 11.87 34.25 12.26L34.25 12.26L34.25 12.26Q34.19 12.65 34.19 12.88L34.19 12.88L32.94 13.32L32.94 8.72L32.94 8.72Q32.94 8.59 32.87 8.47L32.87 8.47L32.87 8.47Q32.81 8.36 32.66 8.36L32.66 8.36L32.66 8.36Q32.49 8.36 32.35 8.49L32.35 8.49L32.35 8.49Q32.21 8.61 32.13 8.74L32.13 8.74L31.94 8.53L31.94 8.53Q32.03 8.36 32.15 8.20L32.15 8.20L32.15 8.20Q32.28 8.04 32.44 7.92L32.44 7.92L32.44 7.92Q32.60 7.79 32.79 7.72L32.79 7.72L32.79 7.72Q32.98 7.65 33.18 7.65L33.18 7.65L33.18 7.65Q33.71 7.65 33.95 7.95L33.95 7.95L33.95 7.95Q34.19 8.24 34.19 8.75L34.19 8.75L34.19 10.98L34.19 10.98Q34.25 10.70 34.35 10.34L34.35 10.34L34.35 10.34Q34.46 9.98 34.61 9.61L34.61 9.61L34.61 9.61Q34.76 9.24 34.95 8.89L34.95 8.89L34.95 8.89Q35.14 8.54 35.36 8.26L35.36 8.26L35.36 8.26Q35.59 7.98 35.85 7.82L35.85 7.82L35.85 7.82Q36.12 7.65 36.43 7.65L36.43 7.65L36.43 7.65Q36.75 7.65 36.91 7.79L36.91 7.79L36.91 7.79Q37.08 7.93 37.15 8.15L37.15 8.15L37.15 8.15Q37.22 8.36 37.23 8.62L37.23 8.62L37.23 8.62Q37.24 8.88 37.24 9.12L37.24 9.12L37.24 12.04L37.24 12.04Q37.24 12.18 37.30 12.29L37.30 12.29L37.30 12.29Q37.37 12.41 37.52 12.41L37.52 12.41L37.52 12.41Q37.67 12.41 37.81 12.28L37.81 12.28L37.81 12.28Q37.95 12.15 38.04 12.03L38.04 12.03ZM41.25 13.22L41.25 13.22L41.25 13.22Q41.17 13.22 41.09 13.18L41.09 13.18L41.09 13.18Q41.00 13.15 40.96 13.06L40.96 13.06L39.22 9.16L39.22 9.16Q39.19 9.10 39.15 9.02L39.15 9.02L39.15 9.02Q39.10 8.94 39.04 8.87L39.04 8.87L39.04 8.87Q38.98 8.80 38.90 8.76L38.90 8.76L38.90 8.76Q38.83 8.71 38.75 8.71L38.75 8.71L38.75 8.71Q38.63 8.71 38.55 8.79L38.55 8.79L38.55 8.79Q38.47 8.88 38.40 8.98L38.40 8.98L38.26 8.79L38.26 8.79Q38.33 8.59 38.46 8.40L38.46 8.40L38.46 8.40Q38.58 8.21 38.75 8.07L38.75 8.07L38.75 8.07Q38.92 7.92 39.13 7.83L39.13 7.83L39.13 7.83Q39.33 7.75 39.56 7.75L39.56 7.75L39.56 7.75Q39.73 7.75 39.87 7.86L39.87 7.86L39.87 7.86Q40.00 7.97 40.11 8.13L40.11 8.13L40.11 8.13Q40.22 8.30 40.29 8.48L40.29 8.48L40.29 8.48Q40.37 8.65 40.43 8.78L40.43 8.78L40.43 8.78Q40.76 9.56 41.08 10.34L41.08 10.34L41.08 10.34Q41.41 11.11 41.75 11.87L41.75 11.87L42.60 10.12L42.60 10.12Q42.66 10.03 42.68 9.86L42.68 9.86L42.68 9.86Q42.70 9.70 42.70 9.59L42.70 9.59L42.70 9.59Q42.70 9.19 42.49 8.89L42.49 8.89L42.49 8.89Q42.29 8.59 41.92 8.42L41.92 8.42L42.71 7.33L42.71 7.33Q43.09 7.53 43.27 7.85L43.27 7.85L43.27 7.85Q43.46 8.18 43.46 8.60L43.46 8.60L43.46 8.60Q43.46 8.81 43.40 9.07L43.40 9.07L43.40 9.07Q43.35 9.32 43.26 9.52L43.26 9.52L41.52 13.08L41.52 13.08Q41.42 13.22 41.25 13.22ZM48.85 11.48L49.05 11.70L49.05 11.70Q48.82 12.01 48.53 12.28L48.53 12.28L48.53 12.28Q48.25 12.54 47.92 12.74L47.92 12.74L47.92 12.74Q47.58 12.94 47.22 13.06L47.22 13.06L47.22 13.06Q46.85 13.17 46.45 13.17L46.45 13.17L46.45 13.17Q45.94 13.17 45.52 12.99L45.52 12.99L45.52 12.99Q45.10 12.81 44.79 12.49L44.79 12.49L44.79 12.49Q44.48 12.17 44.31 11.74L44.31 11.74L44.31 11.74Q44.14 11.31 44.14 10.81L44.14 10.81L44.14 10.81Q44.14 10.40 44.26 10.00L44.26 10.00L44.26 10.00Q44.37 9.60 44.58 9.26L44.58 9.26L44.58 9.26Q44.80 8.91 45.09 8.61L45.09 8.61L45.09 8.61Q45.38 8.31 45.73 8.10L45.73 8.10L45.73 8.10Q46.07 7.89 46.46 7.77L46.46 7.77L46.46 7.77Q46.85 7.65 47.26 7.65L47.26 7.65L47.26 7.65Q47.55 7.65 47.81 7.72L47.81 7.72L47.81 7.72Q48.06 7.79 48.26 7.93L48.26 7.93L48.26 7.93Q48.46 8.08 48.58 8.31L48.58 8.31L48.58 8.31Q48.69 8.54 48.69 8.85L48.69 8.85L48.69 8.85Q48.69 9.11 48.54 9.40L48.54 9.40L48.54 9.40Q48.38 9.69 48.14 9.97L48.14 9.97L48.14 9.97Q47.89 10.26 47.57 10.54L47.57 10.54L47.57 10.54Q47.26 10.81 46.93 11.05L46.93 11.05L46.93 11.05Q46.61 11.29 46.31 11.46L46.31 11.46L46.31 11.46Q46.01 11.64 45.78 11.74L45.78 11.74L45.78 11.74Q46.03 12.05 46.37 12.25L46.37 12.25L46.37 12.25Q46.70 12.45 47.08 12.45L47.08 12.45L47.08 12.45Q47.32 12.45 47.56 12.36L47.56 12.36L47.56 12.36Q47.81 12.26 48.04 12.12L48.04 12.12L48.04 12.12Q48.27 11.98 48.48 11.81L48.48 11.81L48.48 11.81Q48.69 11.63 48.85 11.48L48.85 11.48ZM47.41 9.11L47.41 9.11L47.41 9.11Q47.41 8.95 47.36 8.80L47.36 8.80L47.36 8.80Q47.30 8.66 47.21 8.56L47.21 8.56L47.21 8.56Q47.11 8.45 46.98 8.38L46.98 8.38L46.98 8.38Q46.85 8.32 46.68 8.32L46.68 8.32L46.68 8.32Q46.37 8.32 46.11 8.53L46.11 8.53L46.11 8.53Q45.85 8.75 45.66 9.06L45.66 9.06L45.66 9.06Q45.47 9.38 45.37 9.73L45.37 9.73L45.37 9.73Q45.26 10.08 45.26 10.35L45.26 10.35L45.26 10.35Q45.26 10.61 45.34 10.88L45.34 10.88L45.34 10.88Q45.42 11.16 45.57 11.41L45.57 11.41L45.57 11.41Q45.84 11.26 46.16 10.99L46.16 10.99L46.16 10.99Q46.48 10.73 46.76 10.41L46.76 10.41L46.76 10.41Q47.04 10.09 47.22 9.75L47.22 9.75L47.22 9.75Q47.41 9.41 47.41 9.11ZM55.48 12.03L55.68 12.24L55.68 12.24Q55.60 12.41 55.47 12.57L55.47 12.57L55.47 12.57Q55.34 12.73 55.18 12.85L55.18 12.85L55.18 12.85Q55.02 12.97 54.83 13.05L54.83 13.05L54.83 13.05Q54.65 13.12 54.45 13.12L54.45 13.12L54.45 13.12Q53.91 13.12 53.67 12.82L53.67 12.82L53.67 12.82Q53.42 12.52 53.42 12.01L53.42 12.01L53.42 9.23L53.42 9.23Q53.42 9.18 53.42 9.12L53.42 9.12L53.42 9.12Q53.42 9.05 53.40 8.99L53.40 8.99L53.40 8.99Q53.38 8.93 53.34 8.89L53.34 8.89L53.34 8.89Q53.31 8.85 53.25 8.85L53.25 8.85L53.25 8.85Q53.05 8.85 52.86 9.08L52.86 9.08L52.86 9.08Q52.66 9.32 52.48 9.69L52.48 9.69L52.48 9.69Q52.30 10.06 52.15 10.51L52.15 10.51L52.15 10.51Q51.99 10.97 51.88 11.42L51.88 11.42L51.88 11.42Q51.76 11.87 51.70 12.26L51.70 12.26L51.70 12.26Q51.63 12.65 51.63 12.88L51.63 12.88L50.39 13.32L50.39 8.72L50.39 8.72Q50.39 8.59 50.32 8.47L50.32 8.47L50.32 8.47Q50.25 8.36 50.11 8.36L50.11 8.36L50.11 8.36Q49.94 8.36 49.80 8.49L49.80 8.49L49.80 8.49Q49.66 8.61 49.57 8.74L49.57 8.74L49.39 8.53L49.39 8.53Q49.47 8.36 49.60 8.20L49.60 8.20L49.60 8.20Q49.72 8.04 49.89 7.92L49.89 7.92L49.89 7.92Q50.05 7.79 50.23 7.72L50.23 7.72L50.23 7.72Q50.42 7.65 50.63 7.65L50.63 7.65L50.63 7.65Q51.16 7.65 51.40 7.95L51.40 7.95L51.40 7.95Q51.63 8.24 51.63 8.75L51.63 8.75L51.63 10.98L51.63 10.98Q51.69 10.70 51.80 10.34L51.80 10.34L51.80 10.34Q51.91 9.98 52.06 9.61L52.06 9.61L52.06 9.61Q52.21 9.24 52.39 8.89L52.39 8.89L52.39 8.89Q52.58 8.54 52.81 8.26L52.81 8.26L52.81 8.26Q53.03 7.98 53.30 7.82L53.30 7.82L53.30 7.82Q53.57 7.65 53.87 7.65L53.87 7.65L53.87 7.65Q54.20 7.65 54.36 7.79L54.36 7.79L54.36 7.79Q54.52 7.93 54.60 8.15L54.60 8.15L54.60 8.15Q54.67 8.36 54.67 8.62L54.67 8.62L54.67 8.62Q54.68 8.88 54.68 9.12L54.68 9.12L54.68 12.04L54.68 12.04Q54.68 12.18 54.75 12.29L54.75 12.29L54.75 12.29Q54.82 12.41 54.96 12.41L54.96 12.41L54.96 12.41Q55.12 12.41 55.26 12.28L55.26 12.28L55.26 12.28Q55.40 12.15 55.48 12.03L55.48 12.03ZM58.80 12.03L58.98 12.24L58.98 12.24Q58.82 12.57 58.62 12.75L58.62 12.75L58.62 12.75Q58.41 12.93 58.21 13.01L58.21 13.01L58.21 13.01Q57.99 13.10 57.75 13.12L57.75 13.12L57.75 13.12Q57.44 13.12 57.25 13.02L57.25 13.02L57.25 13.02Q57.05 12.93 56.94 12.77L56.94 12.77L56.94 12.77Q56.83 12.61 56.78 12.41L56.78 12.41L56.78 12.41Q56.74 12.22 56.74 12.01L56.74 12.01L56.74 8.43L56.01 8.43L56.31 7.75L56.74 7.75L56.74 5.33L57.99 4.89L57.99 7.75L59.29 7.75L59.01 8.43L57.99 8.43L57.99 12.04L57.99 12.04Q57.99 12.21 58.06 12.30L58.06 12.30L58.06 12.30Q58.14 12.40 58.26 12.40L58.26 12.40L58.26 12.40Q58.37 12.41 58.52 12.32L58.52 12.32L58.52 12.32Q58.66 12.23 58.80 12.03L58.80 12.03ZM62.19 13.19L62.19 13.19L62.19 13.19Q61.69 13.19 61.25 13.01L61.25 13.01L61.25 13.01Q60.81 12.83 60.48 12.51L60.48 12.51L60.48 12.51Q60.16 12.19 59.97 11.75L59.97 11.75L59.97 11.75Q59.78 11.32 59.78 10.81L59.78 10.81L59.78 10.81Q59.78 10.23 59.97 9.72L59.97 9.72L59.97 9.72Q60.16 9.21 60.50 8.80L60.50 8.80L60.50 8.80Q60.84 8.39 61.30 8.09L61.30 8.09L61.30 8.09Q61.76 7.79 62.30 7.62L62.30 7.62L62.50 7.85L62.50 7.85Q62.19 8.08 61.93 8.37L61.93 8.37L61.93 8.37Q61.66 8.66 61.46 9.00L61.46 9.00L61.46 9.00Q61.26 9.34 61.15 9.71L61.15 9.71L61.15 9.71Q61.03 10.08 61.03 10.47L61.03 10.47L61.03 10.47Q61.03 10.80 61.13 11.16L61.13 11.16L61.13 11.16Q61.22 11.53 61.41 11.83L61.41 11.83L61.41 11.83Q61.61 12.13 61.90 12.32L61.90 12.32L61.90 12.32Q62.19 12.52 62.57 12.52L62.57 12.52L62.57 12.52Q62.91 12.52 63.16 12.39L63.16 12.39L63.16 12.39Q63.41 12.27 63.57 12.06L63.57 12.06L63.57 12.06Q63.74 11.85 63.82 11.56L63.82 11.56L63.82 11.56Q63.90 11.28 63.90 10.96L63.90 10.96L63.90 10.96Q63.90 10.60 63.76 10.21L63.76 10.21L63.76 10.21Q63.62 9.82 63.37 9.50L63.37 9.50L63.37 9.50Q63.12 9.17 62.78 8.95L62.78 8.95L62.78 8.95Q62.45 8.73 62.06 8.70L62.06 8.70L62.06 8.70Q62.30 8.42 62.59 8.19L62.59 8.19L62.59 8.19Q62.88 7.96 63.17 7.75L63.17 7.75L63.17 7.75Q63.57 7.88 63.87 8.13L63.87 8.13L63.87 8.13Q64.18 8.38 64.38 8.71L64.38 8.71L64.38 8.71Q64.59 9.04 64.70 9.42L64.70 9.42L64.70 9.42Q64.81 9.81 64.81 10.21L64.81 10.21L64.81 10.21Q64.81 10.75 64.62 11.28L64.62 11.28L64.62 11.28Q64.44 11.81 64.09 12.24L64.09 12.24L64.09 12.24Q63.75 12.67 63.26 12.93L63.26 12.93L63.26 12.93Q62.78 13.19 62.19 13.19ZM69.51 12.11L69.68 12.29L69.68 12.29Q69.56 12.48 69.38 12.64L69.38 12.64L69.38 12.64Q69.20 12.79 68.99 12.90L68.99 12.90L68.99 12.90Q68.78 13.01 68.54 13.07L68.54 13.07L68.54 13.07Q68.31 13.13 68.09 13.13L68.09 13.13L68.09 13.13Q67.79 13.13 67.57 13.02L67.57 13.02L67.57 13.02Q67.35 12.91 67.22 12.72L67.22 12.72L67.22 12.72Q67.08 12.54 67.02 12.29L67.02 12.29L67.02 12.29Q66.95 12.04 66.95 11.78L66.95 11.78L66.95 11.78Q66.95 11.43 67.06 11.03L67.06 11.03L67.06 11.03Q67.16 10.63 67.34 10.24L67.34 10.24L67.34 10.24Q67.53 9.85 67.76 9.52L67.76 9.52L67.76 9.52Q67.99 9.18 68.25 8.96L68.25 8.96L68.25 8.96Q68.01 9.12 67.73 9.21L67.73 9.21L67.73 9.21Q67.44 9.30 67.15 9.30L67.15 9.30L67.15 9.30Q66.94 9.30 66.78 9.26L66.78 9.26L66.78 9.26Q66.62 9.23 66.43 9.13L66.43 9.13L65.72 10.62L65.43 10.50L66.17 8.99L66.17 8.99Q66.05 8.91 65.92 8.78L65.92 8.78L65.92 8.78Q65.78 8.65 65.72 8.53L65.72 8.53L66.67 7.46L66.67 7.46Q66.73 7.65 66.84 7.84L66.84 7.84L66.84 7.84Q66.95 8.03 67.10 8.17L67.10 8.17L67.10 8.17Q67.25 8.32 67.43 8.42L67.43 8.42L67.43 8.42Q67.61 8.51 67.82 8.51L67.82 8.51L67.82 8.51Q68.18 8.51 68.52 8.38L68.52 8.38L68.52 8.38Q68.87 8.24 69.16 8.05L69.16 8.05L69.34 8.24L69.34 8.24Q69.08 8.48 68.82 8.77L68.82 8.77L68.82 8.77Q68.56 9.06 68.35 9.39L68.35 9.39L68.35 9.39Q68.13 9.71 68.00 10.08L68.00 10.08L68.00 10.08Q67.87 10.44 67.87 10.81L67.87 10.81L67.87 10.81Q67.87 11.02 67.93 11.28L67.93 11.28L67.93 11.28Q67.99 11.55 68.11 11.78L68.11 11.78L68.11 11.78Q68.24 12.02 68.42 12.18L68.42 12.18L68.42 12.18Q68.61 12.34 68.87 12.34L68.87 12.34L68.87 12.34Q69.04 12.34 69.21 12.27L69.21 12.27L69.21 12.27Q69.38 12.21 69.51 12.11L69.51 12.11ZM75.15 7.57L75.15 12.48L75.15 12.48Q75.15 12.97 75.03 13.44L75.03 13.44L75.03 13.44Q74.91 13.90 74.69 14.32L74.69 14.32L74.69 14.32Q74.48 14.73 74.18 15.08L74.18 15.08L74.18 15.08Q73.89 15.42 73.54 15.67L73.54 15.67L73.54 15.67Q73.20 15.92 72.82 16.06L72.82 16.06L72.82 16.06Q72.43 16.20 72.04 16.20L72.04 16.20L72.04 16.20Q71.75 16.20 71.49 16.10L71.49 16.10L71.49 16.10Q71.23 16.00 71.00 15.84L71.00 15.84L71.76 14.87L71.76 14.87Q71.87 14.95 71.99 15.04L71.99 15.04L71.99 15.04Q72.12 15.13 72.26 15.20L72.26 15.20L72.26 15.20Q72.39 15.27 72.54 15.32L72.54 15.32L72.54 15.32Q72.69 15.36 72.83 15.36L72.83 15.36L72.83 15.36Q73.09 15.36 73.27 15.20L73.27 15.20L73.27 15.20Q73.45 15.05 73.57 14.80L73.57 14.80L73.57 14.80Q73.68 14.55 73.75 14.24L73.75 14.24L73.75 14.24Q73.82 13.93 73.85 13.62L73.85 13.62L73.85 13.62Q73.88 13.32 73.89 13.04L73.89 13.04L73.89 13.04Q73.90 12.76 73.90 12.58L73.90 12.58L73.90 9.83L73.90 9.83Q73.84 10.07 73.75 10.41L73.75 10.41L73.75 10.41Q73.66 10.75 73.53 11.12L73.53 11.12L73.53 11.12Q73.40 11.49 73.23 11.86L73.23 11.86L73.23 11.86Q73.06 12.22 72.84 12.52L72.84 12.52L72.84 12.52Q72.63 12.81 72.36 12.99L72.36 12.99L72.36 12.99Q72.10 13.17 71.79 13.17L71.79 13.17L71.79 13.17Q71.48 13.17 71.32 13.03L71.32 13.03L71.32 13.03Q71.16 12.89 71.08 12.68L71.08 12.68L71.08 12.68Q71.01 12.46 71.00 12.20L71.00 12.20L71.00 12.20Q71.00 11.94 71.00 11.70L71.00 11.70L71.00 8.75L71.00 8.75Q71.00 8.63 70.93 8.51L70.93 8.51L70.93 8.51Q70.86 8.39 70.72 8.39L70.72 8.39L70.72 8.39Q70.55 8.39 70.41 8.51L70.41 8.51L70.41 8.51Q70.27 8.64 70.18 8.76L70.18 8.76L70 8.56L70 8.56Q70.08 8.39 70.21 8.23L70.21 8.23L70.21 8.23Q70.33 8.07 70.50 7.94L70.50 7.94L70.50 7.94Q70.66 7.82 70.84 7.75L70.84 7.75L70.84 7.75Q71.03 7.68 71.24 7.68L71.24 7.68L71.24 7.68Q71.77 7.68 72.01 7.97L72.01 7.97L72.01 7.97Q72.24 8.27 72.24 8.78L72.24 8.78L72.24 11.59L72.24 11.59Q72.24 11.63 72.25 11.70L72.25 11.70L72.25 11.70Q72.25 11.76 72.27 11.82L72.27 11.82L72.27 11.82Q72.29 11.88 72.33 11.93L72.33 11.93L72.33 11.93Q72.37 11.97 72.44 11.97L72.44 11.97L72.44 11.97Q72.57 11.97 72.71 11.82L72.71 11.82L72.71 11.82Q72.84 11.67 72.97 11.47L72.97 11.47L72.97 11.47Q73.09 11.27 73.18 11.07L73.18 11.07L73.18 11.07Q73.27 10.88 73.31 10.78L73.31 10.78L73.31 10.78Q73.43 10.49 73.53 10.14L73.53 10.14L73.53 10.14Q73.62 9.79 73.69 9.42L73.69 9.42L73.69 9.42Q73.77 9.06 73.82 8.70L73.82 8.70L73.82 8.70Q73.87 8.34 73.90 8.01L73.90 8.01L75.15 7.57Z"></path></g><defs data-v-fde0c5aa=""><linearGradient data-v-fde0c5aa="" gradientTransform="rotate(25)" id="3073a439-fd80-4197-9513-478c3d5e66b4" x1="0%" y1="0%" x2="100%" y2="0%"><stop data-v-fde0c5aa="" offset="0%" stop-color="#421E56" stop-opacity="1"></stop><stop data-v-fde0c5aa="" offset="100%" stop-color="#BC6083" stop-opacity="1"></stop></linearGradient></defs><g data-v-fde0c5aa="" id="64e9546c-e14e-4a7e-86d5-f9c313c1dd0e" stroke="none" fill="url(#3073a439-fd80-4197-9513-478c3d5e66b4)" transform="matrix(1.5547433069262215,0,0,1.5547433069262215,100.24821417836091,67.9270645744676)"><path d="M11 33h42v29h8V21L32 2 3 21v41h8V33zm11-16h1.524c.439 0 .807-.293.955-.706.086-.239.182-.472.289-.699.187-.397.134-.864-.177-1.175l-1.077-1.077 2.828-2.828 1.077 1.077c.31.31.778.364 1.175.177.227-.107.461-.204.699-.289.414-.149.707-.517.707-.956V9h4v1.524c0 .439.293.807.706.955.239.086.472.182.699.289.397.187.864.134 1.175-.177l1.077-1.077 2.828 2.828-1.077 1.077c-.31.31-.364.778-.177 1.175.107.227.204.461.289.699.149.414.517.707.956.707H42v4h-1.524c-.439 0-.807.293-.955.706a7.953 7.953 0 0 1-.289.699c-.187.397-.134.864.177 1.175l1.077 1.077-2.828 2.828-1.077-1.077c-.31-.31-.778-.364-1.175-.177a7.778 7.778 0 0 1-.699.289c-.414.149-.707.517-.707.956V29h-4v-1.524c0-.439-.293-.807-.706-.955a7.953 7.953 0 0 1-.699-.289c-.397-.187-.864-.134-1.175.177l-1.077 1.077-2.828-2.828 1.077-1.077c.31-.31.364-.778.177-1.175a7.778 7.778 0 0 1-.289-.699c-.149-.414-.517-.707-.956-.707H22v-4z"></path><circle cx="32" cy="19" r="4"></circle><path d="M15 51v10h10V51h-4v4h-2v-4zM27 61h10V51h-4v4h-2v-4h-4zM49 51h-4v4h-2v-4h-4v10h10zM27 39v10h10V39h-4v4h-2v-4zM49 39h-4v4h-2v-4h-4v10h10z"></path></g><!----></svg>